<svg id="오른쪽상단_깃" data-name="오른쪽상단 깃" xmlns="http://www.w3.org/2000/svg" width="144" height="42" viewBox="0 0 144 42">
  <defs>
    <style>
      .cls-1 {
        fill: #ffbf0b;
        fill-rule: evenodd;
      }
    </style>
  </defs>
  <path id="커스텀" class="cls-1" d="M2.063,36.031L92.315,1.543a2.738,2.738,0,0,1,3.54,1.613,2.782,2.782,0,0,1-1.6,3.576L4.005,41.219a2.737,2.737,0,0,1-3.54-1.613A2.782,2.782,0,0,1,2.063,36.031Z"/>
  <path id="커스텀_복사" data-name="커스텀 복사" class="cls-1" d="M49.067,35.161L139.345,0.674a2.739,2.739,0,0,1,3.541,1.613,2.783,2.783,0,0,1-1.6,3.576L51.01,40.35a2.739,2.739,0,0,1-3.541-1.613A2.782,2.782,0,0,1,49.067,35.161Z"/>
</svg>
