<svg id="레이어_1" data-name="레이어 1" xmlns="http://www.w3.org/2000/svg" xmlns:xlink="http://www.w3.org/1999/xlink" viewBox="0 0 328.11 132.65"><defs><style>.cls-1,.cls-4{fill:none;}.cls-2{fill:#ffbf0b;}.cls-3{clip-path:url(#clip-path);}.cls-4{stroke:#41436a;stroke-linecap:round;stroke-linejoin:round;stroke-width:2px;}</style><clipPath id="clip-path" transform="translate(-401.96 -1146.36)"><circle id="SVGID" class="cls-1" cx="566.02" cy="1212.68" r="53.32"/></clipPath></defs><title>fjkdlf;dkf;l</title><circle class="cls-2" cx="580.62" cy="1201.46" r="53.69" transform="translate(-586.92 -1037.84) rotate(-9.22)"/><g class="cls-3"><line class="cls-4" x1="1" y1="131.65" x2="131.65" y2="1"/><line class="cls-4" x1="9.14" y1="131.65" x2="139.79" y2="1"/><line class="cls-4" x1="17.29" y1="131.65" x2="147.94" y2="1"/><line class="cls-4" x1="25.43" y1="131.65" x2="156.08" y2="1"/><line class="cls-4" x1="33.58" y1="131.65" x2="164.23" y2="1"/><line class="cls-4" x1="41.72" y1="131.65" x2="172.37" y2="1"/><line class="cls-4" x1="49.87" y1="131.65" x2="180.51" y2="1"/><line class="cls-4" x1="58.01" y1="131.65" x2="188.66" y2="1"/><line class="cls-4" x1="66.15" y1="131.65" x2="196.8" y2="1"/><line class="cls-4" x1="74.3" y1="131.65" x2="204.95" y2="1"/><line class="cls-4" x1="82.44" y1="131.65" x2="213.09" y2="1"/><line class="cls-4" x1="90.59" y1="131.65" x2="221.24" y2="1"/><line class="cls-4" x1="98.73" y1="131.65" x2="229.38" y2="1"/><line class="cls-4" x1="106.88" y1="131.65" x2="237.52" y2="1"/><line class="cls-4" x1="115.02" y1="131.65" x2="245.67" y2="1"/><line class="cls-4" x1="123.17" y1="131.65" x2="253.81" y2="1"/><line class="cls-4" x1="131.31" y1="131.65" x2="261.96" y2="1"/><line class="cls-4" x1="139.45" y1="131.65" x2="270.1" y2="1"/><line class="cls-4" x1="147.6" y1="131.65" x2="278.25" y2="1"/><line class="cls-4" x1="155.74" y1="131.65" x2="286.39" y2="1"/><line class="cls-4" x1="163.89" y1="131.65" x2="294.54" y2="1"/><line class="cls-4" x1="172.03" y1="131.65" x2="302.68" y2="1"/><line class="cls-4" x1="180.18" y1="131.65" x2="310.82" y2="1"/><line class="cls-4" x1="188.32" y1="131.65" x2="318.97" y2="1"/><line class="cls-4" x1="196.46" y1="131.65" x2="327.11" y2="1"/></g></svg>