<svg xmlns="http://www.w3.org/2000/svg" xmlns:xlink="http://www.w3.org/1999/xlink" width="148" height="150" viewBox="0 0 148 150">
  <defs>
    <style>
      .cls-1 {
        filter: url(#filter);
      }

      .cls-2, .cls-3 {
        fill: #fff;
      }

      .cls-3 {
        fill-rule: evenodd;
      }
    </style>
    <filter id="filter" filterUnits="userSpaceOnUse">
      <feFlood result="flood" flood-color="#ffbf0b"/>
      <feComposite result="composite" operator="in" in2="SourceGraphic"/>
      <feBlend result="blend" in2="SourceGraphic"/>
    </filter>
  </defs>
  <g id="원_리핏" data-name="원 리핏" class="cls-1">
    <g id="그룹_7" data-name="그룹 7">
      <circle id="타원_2" data-name="타원 2" class="cls-2" cx="60.656" cy="10.25" r="3.281"/>
      <path id="타원_2_복사" data-name="타원 2 복사" class="cls-3" d="M78.337,10.291a3.25,3.25,0,1,1-3.815,2.584A3.258,3.258,0,0,1,78.337,10.291Z"/>
      <path id="타원_2_복사_4" data-name="타원 2 복사 4" class="cls-3" d="M27.112,0.562a3.25,3.25,0,1,1-3.8,2.586A3.25,3.25,0,0,1,27.112.562Z"/>
      <path id="타원_2_복사_4-2" data-name="타원 2 복사 4" class="cls-3" d="M44.182,3.8a3.25,3.25,0,1,1-3.8,2.586A3.25,3.25,0,0,1,44.182,3.8Z"/>
      <path id="타원_2_복사_2" data-name="타원 2 복사 2" class="cls-3" d="M94.363,13.335a3.25,3.25,0,1,1-3.815,2.583A3.258,3.258,0,0,1,94.363,13.335Z"/>
      <circle id="타원_2_복사_2-2" data-name="타원 2 복사 2" class="cls-2" cx="110.813" cy="19.766" r="3.25"/>
      <circle id="타원_2_복사_3" data-name="타원 2 복사 3" class="cls-2" cx="127.875" cy="23" r="3.25"/>
      <path id="타원_2_복사_3-2" data-name="타원 2 복사 3" class="cls-3" d="M145.572,23.061a3.25,3.25,0,1,1-3.814,2.584A3.258,3.258,0,0,1,145.572,23.061Z"/>
    </g>
    <g id="그룹_7-2" data-name="그룹 7">
      <circle id="타원_2-2" data-name="타원 2" class="cls-2" cx="57.422" cy="27.328" r="3.266"/>
      <circle id="타원_2_복사-2" data-name="타원 2 복사" class="cls-2" cx="74.484" cy="30.578" r="3.266"/>
      <path id="타원_2_복사_4-3" data-name="타원 2 복사 4" class="cls-3" d="M23.87,17.632a3.266,3.266,0,1,1-3.8,2.6A3.258,3.258,0,0,1,23.87,17.632Z"/>
      <path id="타원_2_복사_4-4" data-name="타원 2 복사 4" class="cls-3" d="M40.94,20.874a3.266,3.266,0,1,1-3.8,2.6A3.258,3.258,0,0,1,40.94,20.874Z"/>
      <circle id="타원_2_복사_2-3" data-name="타원 2 복사 2" class="cls-2" cx="90.516" cy="33.609" r="3.266"/>
      <path id="타원_2_복사_2-4" data-name="타원 2 복사 2" class="cls-3" d="M108.175,33.644a3.266,3.266,0,1,1-3.8,2.6A3.258,3.258,0,0,1,108.175,33.644Z"/>
      <path id="타원_2_복사_3-3" data-name="타원 2 복사 3" class="cls-3" d="M125.245,36.886a3.266,3.266,0,1,1-3.8,2.6A3.259,3.259,0,0,1,125.245,36.886Z"/>
      <path id="타원_2_복사_3-4" data-name="타원 2 복사 3" class="cls-3" d="M142.33,40.131a3.266,3.266,0,1,1-3.817,2.6A3.265,3.265,0,0,1,142.33,40.131Z"/>
    </g>
    <g id="그룹_7-3" data-name="그룹 7">
      <path id="타원_2-3" data-name="타원 2" class="cls-3" d="M54.777,41.22a3.266,3.266,0,1,1-3.818,2.6A3.266,3.266,0,0,1,54.777,41.22Z"/>
      <path id="타원_2_복사-3" data-name="타원 2 복사" class="cls-3" d="M71.847,44.462a3.266,3.266,0,1,1-3.818,2.6A3.265,3.265,0,0,1,71.847,44.462Z"/>
      <circle id="타원_2_복사_4-5" data-name="타원 2 복사 4" class="cls-2" cx="20.016" cy="37.938" r="3.266"/>
      <circle id="타원_2_복사_4-6" data-name="타원 2 복사 4" class="cls-2" cx="37.078" cy="41.188" r="3.266"/>
      <path id="타원_2_복사_2-5" data-name="타원 2 복사 2" class="cls-3" d="M87.873,47.506a3.266,3.266,0,1,1-3.818,2.6A3.265,3.265,0,0,1,87.873,47.506Z"/>
      <path id="타원_2_복사_2-6" data-name="타원 2 복사 2" class="cls-3" d="M104.927,50.745a3.266,3.266,0,1,1-3.8,2.6A3.258,3.258,0,0,1,104.927,50.745Z"/>
      <path id="타원_2_복사_3-5" data-name="타원 2 복사 3" class="cls-3" d="M122,53.987a3.266,3.266,0,1,1-3.8,2.6A3.258,3.258,0,0,1,122,53.987Z"/>
      <circle id="타원_2_복사_3-6" data-name="타원 2 복사 3" class="cls-2" cx="138.469" cy="60.438" r="3.281"/>
    </g>
    <g id="그룹_7-4" data-name="그룹 7">
      <path id="타원_2-4" data-name="타원 2" class="cls-3" d="M51.535,58.289a3.266,3.266,0,1,1-3.818,2.6A3.266,3.266,0,0,1,51.535,58.289Z"/>
      <circle id="타원_2_복사-4" data-name="타원 2 복사" class="cls-2" cx="68" cy="64.734" r="3.281"/>
      <circle id="타원_2_복사_4-7" data-name="타원 2 복사 4" class="cls-2" cx="16.766" cy="55.016" r="3.266"/>
      <circle id="타원_2_복사_4-8" data-name="타원 2 복사 4" class="cls-2" cx="33.844" cy="58.25" r="3.25"/>
      <circle id="타원_2_복사_2-7" data-name="타원 2 복사 2" class="cls-2" cx="84.016" cy="67.781" r="3.266"/>
      <circle id="타원_2_복사_2-8" data-name="타원 2 복사 2" class="cls-2" cx="101.078" cy="71.016" r="3.266"/>
      <path id="타원_2_복사_3-7" data-name="타원 2 복사 3" class="cls-3" d="M118.755,71.057a3.266,3.266,0,1,1-3.8,2.6A3.258,3.258,0,0,1,118.755,71.057Z"/>
      <path id="타원_2_복사_3-8" data-name="타원 2 복사 3" class="cls-3" d="M135.84,74.3a3.266,3.266,0,1,1-3.817,2.6A3.265,3.265,0,0,1,135.84,74.3Z"/>
    </g>
    <g id="그룹_7-5" data-name="그룹 7">
      <circle id="타원_2-5" data-name="타원 2" class="cls-2" cx="47.688" cy="78.563" r="3.281"/>
      <circle id="타원_2_복사-5" data-name="타원 2 복사" class="cls-2" cx="64.75" cy="81.813" r="3.281"/>
      <path id="타원_2_복사_4-9" data-name="타원 2 복사 4" class="cls-3" d="M14.138,68.872a3.266,3.266,0,1,1-3.8,2.6A3.258,3.258,0,0,1,14.138,68.872Z"/>
      <circle id="타원_2_복사_4-10" data-name="타원 2 복사 4" class="cls-2" cx="30.594" cy="75.328" r="3.25"/>
      <circle id="타원_2_복사_2-9" data-name="타원 2 복사 2" class="cls-2" cx="80.781" cy="84.859" r="3.281"/>
      <circle id="타원_2_복사_2-10" data-name="타원 2 복사 2" class="cls-2" cx="97.844" cy="88.094" r="3.25"/>
      <path id="타원_2_복사_3-9" data-name="타원 2 복사 3" class="cls-3" d="M115.513,88.126a3.266,3.266,0,1,1-3.8,2.6A3.259,3.259,0,0,1,115.513,88.126Z"/>
      <path id="타원_2_복사_3-10" data-name="타원 2 복사 3" class="cls-3" d="M132.6,91.371a3.266,3.266,0,1,1-3.817,2.6A3.265,3.265,0,0,1,132.6,91.371Z"/>
    </g>
    <g id="그룹_7-6" data-name="그룹 7">
      <circle id="타원_2-6" data-name="타원 2" class="cls-2" cx="44.438" cy="95.656" r="3.281"/>
      <path id="타원_2_복사-6" data-name="타원 2 복사" class="cls-3" d="M62.115,95.7A3.25,3.25,0,1,1,58.3,98.286,3.258,3.258,0,0,1,62.115,95.7Z"/>
      <path id="타원_2_복사_4-11" data-name="타원 2 복사 4" class="cls-3" d="M10.89,85.973a3.25,3.25,0,1,1-3.8,2.586A3.25,3.25,0,0,1,10.89,85.973Z"/>
      <circle id="타원_2_복사_4-12" data-name="타원 2 복사 4" class="cls-2" cx="27.344" cy="92.406" r="3.25"/>
      <path id="타원_2_복사_2-11" data-name="타원 2 복사 2" class="cls-3" d="M78.141,98.746a3.25,3.25,0,1,1-3.815,2.583A3.258,3.258,0,0,1,78.141,98.746Z"/>
      <path id="타원_2_복사_2-12" data-name="타원 2 복사 2" class="cls-3" d="M95.2,101.985a3.25,3.25,0,1,1-3.8,2.586A3.25,3.25,0,0,1,95.2,101.985Z"/>
      <circle id="타원_2_복사_3-11" data-name="타원 2 복사 3" class="cls-2" cx="111.656" cy="108.422" r="3.25"/>
      <path id="타원_2_복사_3-12" data-name="타원 2 복사 3" class="cls-3" d="M129.35,108.472a3.25,3.25,0,1,1-3.814,2.583A3.257,3.257,0,0,1,129.35,108.472Z"/>
    </g>
    <g id="그룹_7-7" data-name="그룹 7">
      <path id="타원_2-7" data-name="타원 2" class="cls-3" d="M41.8,109.53a3.25,3.25,0,1,1-3.815,2.583A3.257,3.257,0,0,1,41.8,109.53Z"/>
      <path id="타원_2_복사-7" data-name="타원 2 복사" class="cls-3" d="M58.873,112.772a3.25,3.25,0,1,1-3.815,2.583A3.258,3.258,0,0,1,58.873,112.772Z"/>
      <circle id="타원_2_복사_4-13" data-name="타원 2 복사 4" class="cls-2" cx="7.031" cy="106.234" r="3.25"/>
      <path id="타원_2_복사_4-14" data-name="타원 2 복사 4" class="cls-3" d="M24.718,106.285a3.25,3.25,0,1,1-3.8,2.586A3.25,3.25,0,0,1,24.718,106.285Z"/>
      <path id="타원_2_복사_2-13" data-name="타원 2 복사 2" class="cls-3" d="M74.9,115.816a3.25,3.25,0,1,1-3.815,2.583A3.257,3.257,0,0,1,74.9,115.816Z"/>
      <circle id="타원_2_복사_2-14" data-name="타원 2 복사 2" class="cls-2" cx="91.344" cy="122.25" r="3.25"/>
      <circle id="타원_2_복사_3-13" data-name="타원 2 복사 3" class="cls-2" cx="108.422" cy="125.484" r="3.266"/>
      <path id="타원_2_복사_3-14" data-name="타원 2 복사 3" class="cls-3" d="M126.108,125.542a3.25,3.25,0,1,1-3.814,2.583A3.257,3.257,0,0,1,126.108,125.542Z"/>
    </g>
    <g id="그룹_7-8" data-name="그룹 7">
      <circle id="타원_2-8" data-name="타원 2" class="cls-2" cx="37.953" cy="129.781" r="3.266"/>
      <circle id="타원_2_복사-8" data-name="타원 2 복사" class="cls-2" cx="55.031" cy="133.016" r="3.281"/>
      <path id="타원_2_복사_4-15" data-name="타원 2 복사 4" class="cls-3" d="M4.412,120.082a3.265,3.265,0,1,1-3.8,2.6A3.258,3.258,0,0,1,4.412,120.082Z"/>
      <path id="타원_2_복사_4-16" data-name="타원 2 복사 4" class="cls-3" d="M21.482,123.324a3.265,3.265,0,1,1-3.8,2.6A3.258,3.258,0,0,1,21.482,123.324Z"/>
      <circle id="타원_2_복사_2-15" data-name="타원 2 복사 2" class="cls-2" cx="71.047" cy="136.063" r="3.266"/>
      <path id="타원_2_복사_2-16" data-name="타원 2 복사 2" class="cls-3" d="M88.717,136.094a3.265,3.265,0,1,1-3.8,2.6A3.258,3.258,0,0,1,88.717,136.094Z"/>
      <path id="타원_2_복사_3-15" data-name="타원 2 복사 3" class="cls-3" d="M105.787,139.336a3.265,3.265,0,1,1-3.8,2.6A3.258,3.258,0,0,1,105.787,139.336Z"/>
      <path id="타원_2_복사_3-16" data-name="타원 2 복사 3" class="cls-3" d="M122.872,142.581a3.265,3.265,0,1,1-3.818,2.6A3.265,3.265,0,0,1,122.872,142.581Z"/>
    </g>
  </g>
</svg>
