<svg id="오른쪽상단_깃" data-name="오른쪽상단 깃" xmlns="http://www.w3.org/2000/svg" width="169" height="93" viewBox="0 0 169 93">
  <defs>
    <style>
      .cls-1 {
        fill: #f54768;
        fill-rule: evenodd;
      }
    </style>
  </defs>
  <path id="커스텀" class="cls-1" d="M100.947,11.036L130.41,0.589a2.763,2.763,0,1,1,1.957,5.169L102.9,16.2A2.763,2.763,0,1,1,100.947,11.036Z"/>
  <path id="커스텀_복사" data-name="커스텀 복사" class="cls-1" d="M19.943,61.029L127.427,19.6a2.767,2.767,0,0,1,1.948,5.18L21.891,66.21A2.767,2.767,0,0,1,19.943,61.029Z"/>
  <path id="커스텀_복사_2" data-name="커스텀 복사 2" class="cls-1" d="M1.941,87.027L164.43,24.6a2.744,2.744,0,0,1,3.546,1.611,2.777,2.777,0,0,1-1.6,3.572L3.888,92.21A2.745,2.745,0,0,1,.342,90.6,2.777,2.777,0,0,1,1.941,87.027Z"/>
</svg>
