<svg id="레이어_1" data-name="레이어 1" xmlns="http://www.w3.org/2000/svg" viewBox="0 0 271.85 52.35"><defs><style>.cls-1{fill:none;stroke:#f5b91d;stroke-miterlimit:10;stroke-width:1.5px;}</style></defs><title>ellenyang</title><path class="cls-1" d="M116.4,244.55c-8.45,0-14.4-5.45-14.4-14.45s6-14.45,14.4-14.45,14.4,5.35,14.4,14.2a16.26,16.26,0,0,1-.15,2.2h-17.8c.15,2.85,1.5,3.65,3,3.65a2.69,2.69,0,0,0,2.6-1.65H130.2C129,240.05,123.5,244.55,116.4,244.55ZM113,227.2h6.6c0-1.95-1.5-2.85-3.15-2.85A3.18,3.18,0,0,0,113,227.2Z" transform="translate(-101.25 -206.45)"/><path class="cls-1" d="M134.3,207.2h11.1v37H134.3Z" transform="translate(-101.25 -206.45)"/><path class="cls-1" d="M150.4,207.2h11.1v37H150.4Z" transform="translate(-101.25 -206.45)"/><path class="cls-1" d="M179.4,244.55c-8.45,0-14.4-5.45-14.4-14.45s5.95-14.45,14.4-14.45,14.4,5.35,14.4,14.2a16.26,16.26,0,0,1-.15,2.2h-17.8c.15,2.85,1.5,3.65,3,3.65a2.69,2.69,0,0,0,2.6-1.65H193.2C192,240.05,186.5,244.55,179.4,244.55ZM176,227.2h6.6c0-1.95-1.5-2.85-3.15-2.85A3.18,3.18,0,0,0,176,227.2Z" transform="translate(-101.25 -206.45)"/><path class="cls-1" d="M216.3,229.25c0-2.7-1.55-4.35-4-4.35s-3.95,1.65-3.95,4.35V244.2H197.3V216h11.1v4.3a9.9,9.9,0,0,1,8.65-4.5c6.5,0,10.3,4.75,10.3,12V244.2h-11Z" transform="translate(-101.25 -206.45)"/><path class="cls-1" d="M260.25,216H272.5l-18.05,41.7H242.3l7.1-14.9L237.65,216H250l5.3,14.3Z" transform="translate(-101.25 -206.45)"/><path class="cls-1" d="M284.65,215.65c3.75,0,6.45,1.65,7.8,4.2V216H303.5v28.2H292.45v-3.85c-1.35,2.55-4.05,4.2-7.8,4.2-6.5,0-11.65-5.35-11.65-14.45S278.15,215.65,284.65,215.65Zm3.7,9.7c-2.3,0-4.1,1.65-4.1,4.75s1.8,4.75,4.1,4.75,4.1-1.65,4.1-4.75S290.65,225.35,288.35,225.35Z" transform="translate(-101.25 -206.45)"/><path class="cls-1" d="M327.5,229.25c0-2.7-1.55-4.35-3.95-4.35s-3.95,1.65-3.95,4.35V244.2H308.5V216h11.1v4.3a9.9,9.9,0,0,1,8.65-4.5c6.5,0,10.3,4.75,10.3,12V244.2H327.5Z" transform="translate(-101.25 -206.45)"/><path class="cls-1" d="M353.5,215.65c3.75,0,6.45,1.65,7.8,4.2V216h11.05v27.7c0,7.45-3.85,14.35-14.4,14.35-9.2,0-14.55-4.65-15.3-11.8h10.9c.3,1.45,1.55,2.2,3.6,2.2,2.25,0,4.15-.8,4.15-4.75v-3.35c-1.35,2.55-4.05,4.2-7.8,4.2-6.5,0-11.65-5.35-11.65-14.45S347,215.65,353.5,215.65Zm3.7,9.7c-2.3,0-4.1,1.65-4.1,4.75s1.8,4.75,4.1,4.75,4.1-1.65,4.1-4.75S359.5,225.35,357.2,225.35Z" transform="translate(-101.25 -206.45)"/></svg>