<svg id="레이어_1" data-name="레이어 1" xmlns="http://www.w3.org/2000/svg" viewBox="0 0 38.65 45"><defs><style>.cls-1{fill:#fff;}</style></defs><title>love song</title><path class="cls-1" d="M50.5,36V10a.49.49,0,0,0-.19-.39.48.48,0,0,0-.43-.09l-24,6a.49.49,0,0,0-.38.48V42.06A4.41,4.41,0,0,0,22.66,41a4.5,4.5,0,0,0-2.83,1A4.52,4.52,0,0,0,17,41a4.51,4.51,0,0,0-3.18,7.69l5.65,5.65a.51.51,0,0,0,.36.15.49.49,0,0,0,.35-.15l5.66-5.65a4.52,4.52,0,0,0,.63-5.56.32.32,0,0,0,0-.14V22.39l23-5.75V35.06A4.41,4.41,0,0,0,46.66,34a4.5,4.5,0,0,0-2.83,1A4.52,4.52,0,0,0,41,34a4.51,4.51,0,0,0-3.18,7.69l5.65,5.65a.51.51,0,0,0,.36.15.49.49,0,0,0,.35-.15l5.66-5.65a4.5,4.5,0,0,0,.63-5.56A.32.32,0,0,0,50.5,36ZM25.13,48l-5.3,5.3L14.52,48a3.5,3.5,0,1,1,5-5,.5.5,0,0,0,.7,0,3.59,3.59,0,0,1,4.95,0A3.49,3.49,0,0,1,25.13,48ZM26.5,21.36v-5l23-5.75v5ZM49.13,41l-5.3,5.3L38.52,41A3.51,3.51,0,0,1,41,35a3.46,3.46,0,0,1,2.47,1,.51.51,0,0,0,.71,0,3.59,3.59,0,0,1,5,0A3.49,3.49,0,0,1,49.13,41Z" transform="translate(-12.5 -9.5)"/></svg>