<svg id="movies" data-name="movies" xmlns="http://www.w3.org/2000/svg" viewBox="0 0 32.35 32.35"><defs><style>.cls-1{fill:#fff;stroke:#fff;stroke-miterlimit:10;stroke-width:0.5px;}</style></defs><title>무제-3</title><path class="cls-1" d="M622,803.92a16.18,16.18,0,1,0-16.18-16.17A16.18,16.18,0,0,0,622,803.92Zm14.94-16.17A14.94,14.94,0,1,1,622,772.81,15,15,0,0,1,636.94,787.75Z" transform="translate(-605.82 -771.57)"/><path class="cls-1" d="M623.82,791.61a.62.62,0,0,0-.77-.28,2.14,2.14,0,0,1-2.17-.35.61.61,0,0,0-.47-.14.64.64,0,0,0-.43.25L615.56,797a.61.61,0,0,0,.09.84,9.59,9.59,0,0,0,6.45,2.4,12.47,12.47,0,0,0,5.16-1.15.58.58,0,0,0,.3-.37.62.62,0,0,0,0-.48Zm-6.92,5.7,3.73-5a3.37,3.37,0,0,0,2.35.34l3.12,5.64C624.6,798.87,620.5,800.07,616.9,797.31Z" transform="translate(-605.82 -771.57)"/><path class="cls-1" d="M609.85,787.56a.61.61,0,0,0,.61.51h0l7.39-.68a.64.64,0,0,0,.56-.71,2.2,2.2,0,0,1,.83-2,.62.62,0,0,0,.17-.8l-3.78-6.62a.63.63,0,0,0-.38-.3.68.68,0,0,0-.48.07C614.76,777,608.69,780.78,609.85,787.56Zm5.09-9.15,3.2,5.61a3.39,3.39,0,0,0-.94,2.19l-6.21.57C610.49,782.23,613.65,779.38,614.94,778.41Z" transform="translate(-605.82 -771.57)"/><path class="cls-1" d="M625.25,784.83a2.16,2.16,0,0,1,1,2,.59.59,0,0,0,.15.46.61.61,0,0,0,.44.21l7.42.23h0a.63.63,0,0,0,.62-.56c.75-6.83-5.55-10.21-5.61-10.24a.62.62,0,0,0-.48,0,.6.6,0,0,0-.36.32L625,784A.62.62,0,0,0,625.25,784.83Zm8.42,1.63-6.24-.2a3.33,3.33,0,0,0-1.06-2.12l2.85-5.79C630.55,779.25,633.88,781.93,633.67,786.46Z" transform="translate(-605.82 -771.57)"/><path class="cls-1" d="M619.62,789a3.18,3.18,0,0,0,1.91,1.5,3.26,3.26,0,0,0,.87.12,3.14,3.14,0,0,0,1.54-.41h0a3.17,3.17,0,0,0-.69-5.82,3.12,3.12,0,0,0-2.41.29A3.18,3.18,0,0,0,619.62,789Zm3.29-3.42a2,2,0,0,1,1.17.92,1.93,1.93,0,0,1-.74,2.63h0a1.89,1.89,0,0,1-1.47.18,1.93,1.93,0,0,1-.43-3.55,1.9,1.9,0,0,1,.95-.25A1.86,1.86,0,0,1,622.91,785.59Z" transform="translate(-605.82 -771.57)"/></svg>