<svg id="coffee" data-name="coffee" xmlns="http://www.w3.org/2000/svg" viewBox="0 0 32.11 20.9"><defs><style>.cls-1{fill:#fff;}</style></defs><title>coffee</title><path class="cls-1" d="M573.26,1210.49v-.13h-.57c-.21-.5-1-1.12-4.08-1.6a68.21,68.21,0,0,0-17.6,0c-3.16.49-3.89,1.11-4.09,1.63h-.12v.7a16.81,16.81,0,0,0,4.65,11.86c-2.34.63-3.52,1.5-3.52,2.59,0,2.8,7.92,3.54,12.1,3.54s12.11-.74,12.11-3.54c0-1.09-1.19-2-3.54-2.59l.46-.48a15.18,15.18,0,0,0,2.33.2,8,8,0,0,0,5.28-1.67,6.59,6.59,0,0,0,2.24-5.25C578.91,1212.35,575.9,1210.8,573.26,1210.49Zm-.15,2.94a2.67,2.67,0,0,1,2.29,2.53,3.73,3.73,0,0,1-1.23,3,4.8,4.8,0,0,1-3.22,1A17.22,17.22,0,0,0,573.11,1213.43Zm-13.3-3.94c6.17,0,10.42.7,11.48,1.27-1.06.56-5.31,1.26-11.48,1.26s-10.42-.7-11.48-1.26C549.39,1210.19,553.64,1209.49,559.81,1209.49Zm11,16c0,.79-4.1,2.24-10.8,2.24s-10.8-1.45-10.8-2.24c0-.32.91-1,3.39-1.54a11.57,11.57,0,0,0,14.81,0C569.93,1224.55,570.83,1225.22,570.83,1225.54Zm-10.8-.16c-6.28,0-11.46-5.83-11.89-13.31a13.86,13.86,0,0,0,2.87.69,68.21,68.21,0,0,0,17.6,0,11.22,11.22,0,0,0,3.33-.9C571.6,1219.46,566.42,1225.38,560,1225.38Zm15.8-5.38c-1.32,1.11-3.32,1.55-5.8,1.28a1.71,1.71,0,0,0,.11-.14c.35,0,.64,0,.9,0l.6,0a5.7,5.7,0,0,0,3.36-1.24,4.63,4.63,0,0,0,1.59-2.77,6.61,6.61,0,0,0,.11-1.2c0-2.66-2.32-3.57-3.47-3.85,0-.1,0-.2,0-.3a8.23,8.23,0,0,1,1.92.54,3.53,3.53,0,0,1,2.43,3.4A5.3,5.3,0,0,1,575.83,1220Z" transform="translate(-546.8 -1208.19)"/></svg>