<svg id="레이어_1" data-name="레이어 1" xmlns="http://www.w3.org/2000/svg" viewBox="0 0 89.8 100"><defs><style>.cls-1{fill:#fff;}</style></defs><title>theater</title><path class="cls-1" d="M39.8,69.6l2-11.4-8.3-8.1L45,48.4l5-10.3,5.1,10.4,11.5,1.7-8.3,8.1,2,11.4L50,64.2ZM50,61.7l7.3,3.8-1.4-8.1,5.9-5.7-8.1-1.2L50,43.2l-3.6,7.4-8.1,1.2,5.9,5.7-1.4,8.1Z" transform="translate(-5.1)"/><path class="cls-1" d="M21.8,47.4a1.17,1.17,0,0,1-1.1-.9,1.13,1.13,0,0,1,.9-1.3A26,26,0,0,0,40.4,26a1.14,1.14,0,1,1,2.2.6A28.63,28.63,0,0,1,22,47.3C21.9,47.3,21.9,47.4,21.8,47.4Z" transform="translate(-5.1)"/><path class="cls-1" d="M25.4,100h0a1.07,1.07,0,0,1-1.1-1.2C25,83.6,22.6,75.1,22.6,75a1.14,1.14,0,0,1,2.2-.6c.1.4,2.5,8.9,1.8,24.5A1.28,1.28,0,0,1,25.4,100Z" transform="translate(-5.1)"/><path class="cls-1" d="M17.6,100h0a1.08,1.08,0,0,1-1.1-1.2c.4-12.2-.8-16.9-.8-17a1.14,1.14,0,1,1,2.2-.6c.1.2,1.3,5.1.9,17.6A1.29,1.29,0,0,1,17.6,100Z" transform="translate(-5.1)"/><path class="cls-1" d="M93.8,100H67.1A1.09,1.09,0,0,1,66,99c0-.3-3.6-30.7,11.2-53.4a1.19,1.19,0,0,1,.9-.5h6.6a1.1,1.1,0,0,1,0,2.2h-6C66.3,67,67.7,92.5,68.2,97.8H92.7V2.2H7.3V97.7H31.8c.5-5.3,1.9-30.7-10.7-50.4h-6a1.1,1.1,0,1,1,0-2.2h6.6a1.05,1.05,0,0,1,.9.5C37.5,68.3,34,98.7,34,99a1.09,1.09,0,0,1-1.1,1H6.2a1.11,1.11,0,0,1-1.1-1.1V1.1A1.11,1.11,0,0,1,6.2,0H93.8a1.11,1.11,0,0,1,1.1,1.1V98.9A1.11,1.11,0,0,1,93.8,100Z" transform="translate(-5.1)"/><path class="cls-1" d="M78.2,47.4H78A28.44,28.44,0,0,1,57.5,26.5a1.14,1.14,0,0,1,2.2-.6A26.07,26.07,0,0,0,78.4,45.1a1.13,1.13,0,0,1,.9,1.3A1.16,1.16,0,0,1,78.2,47.4Z" transform="translate(-5.1)"/><path class="cls-1" d="M74.6,100a1.11,1.11,0,0,1-1.1-1.1c-.3-15.4,1.7-24.1,1.8-24.4a1.1,1.1,0,0,1,1.4-.8,1.06,1.06,0,0,1,.8,1.4c0,.1-2,8.7-1.7,23.8a1.13,1.13,0,0,1-1.2,1.1Z" transform="translate(-5.1)"/><path class="cls-1" d="M82.4,100a1.11,1.11,0,0,1-1.1-1.1,124.29,124.29,0,0,1,.8-17.5,1.12,1.12,0,0,1,2.2.4,117.74,117.74,0,0,0-.8,17.1,1.11,1.11,0,0,1-1.1,1.1Z" transform="translate(-5.1)"/><path class="cls-1" d="M93.8,24.3a11.46,11.46,0,0,1-10.6-6.9,12.18,12.18,0,0,1-22-.1,12.14,12.14,0,0,1-22,0,12.14,12.14,0,0,1-22,0,12.12,12.12,0,0,1-11,7,1.1,1.1,0,1,1,0-2.2,9.92,9.92,0,0,0,9.9-9.9,1.1,1.1,0,0,1,2.2,0,9.9,9.9,0,0,0,19.8,0,1.1,1.1,0,0,1,2.2,0,9.9,9.9,0,1,0,19.8,0,1.1,1.1,0,1,1,2.2,0,9.9,9.9,0,1,0,19.8,0,1.1,1.1,0,0,1,2.2,0,9.65,9.65,0,0,0,9.5,9.9,1.1,1.1,0,1,1,0,2.2Z" transform="translate(-5.1)"/></svg>