<svg id="레이어_1" data-name="레이어 1" xmlns="http://www.w3.org/2000/svg" viewBox="0 0 32.59 37.02"><defs><style>.cls-1{fill:#fff;}</style></defs><title>무제-1</title><path class="cls-1" d="M531.35,697.39l11.56,6a.81.81,0,0,0,1-.19.8.8,0,0,0,.06-1l-2.7-3.93a1.73,1.73,0,0,0,.19-.28l.57-1.1a1.68,1.68,0,0,0,.11-1.3,1.64,1.64,0,0,0-.84-1,1.66,1.66,0,0,0-2.18.55l-1.2-1.76.47-.9a1.7,1.7,0,0,0-2-2.41,1.8,1.8,0,0,0-.53.28l-.36-.52c3.13-6.47,5.17-13.8,2.89-15s-7.48,4.63-11,10.94h-.89a1.81,1.81,0,0,0-.06-.73,1.73,1.73,0,0,0-.84-1,1.71,1.71,0,0,0-2.3.73l-.54,1-2.11,0a1.71,1.71,0,0,0-.75-2.23,1.73,1.73,0,0,0-1.3-.12,1.7,1.7,0,0,0-1,.84l-.58,1.11a2.28,2.28,0,0,0-.15.44l-4.49.05a.81.81,0,0,0-.79.62.84.84,0,0,0,.42.92l11.56,6a31.7,31.7,0,0,0-1.8,7c-.11.69-.22,1.34-.35,1.94l-6.05,1.91a.81.81,0,0,0,.29,1.59c.06,0,5.79-.23,10.41,5.46a.81.81,0,0,0,.64.3.85.85,0,0,0,.38-.09.81.81,0,0,0,.39-1l-1.91-6,.67-.74A43.14,43.14,0,0,0,531.35,697.39Zm-12.19,7.46,3.14-1a.84.84,0,0,0,.55-.59c.18-.75.32-1.6.47-2.49a28.09,28.09,0,0,1,2-7.33.81.81,0,0,0-.37-1.06l-9.33-4.85,1.76,0a2,2,0,0,0,.33.24,1.79,1.79,0,0,0,.78.19,1.82,1.82,0,0,0,.52-.08,1.67,1.67,0,0,0,.63-.37l3,0a1.69,1.69,0,0,0,.72.73,1.72,1.72,0,0,0,.79.2,1.52,1.52,0,0,0,.51-.09,1.65,1.65,0,0,0,1-.83l0,0,2.11,0a.83.83,0,0,0,.71-.43c3.87-7.08,8-10.6,9-10.67.44.81,0,5.6-3.79,13.23a.81.81,0,0,0,.06.82l1,1.48-.09.17a1.7,1.7,0,0,0,1.51,2.49,1.5,1.5,0,0,0,.37,0l1.62,2.36a1.66,1.66,0,0,0,0,.91,1.7,1.7,0,0,0,.84,1,1.9,1.9,0,0,0,.57.18l1,1.54-9.33-4.85a.82.82,0,0,0-1.08.3,40.11,40.11,0,0,1-5.37,6.88l-1,1.1a.8.8,0,0,0-.17.78l1,3.24A15.63,15.63,0,0,0,519.16,704.85Zm-1-18.79.57-1.11a.43.43,0,0,1,.55-.17.41.41,0,0,1,.17.54l-.58,1.11h0a.45.45,0,0,1-.23.2.42.42,0,0,1-.31,0,.44.44,0,0,1-.2-.24A.39.39,0,0,1,518.12,686.06Zm6.28-.66a.39.39,0,0,1,.35-.22.41.41,0,0,1,.19.05.39.39,0,0,1,.19.23.37.37,0,0,1,0,.31l-.58,1.1a.38.38,0,0,1-.23.2.42.42,0,0,1-.31,0,.41.41,0,0,1-.17-.54Zm12.34,5.92.12,0a.31.31,0,0,1,.18.05.35.35,0,0,1,.2.23.42.42,0,0,1,0,.31l-.57,1.1a.4.4,0,0,1-.54.17.39.39,0,0,1-.17-.54h0l.57-1.1A.37.37,0,0,1,536.74,691.32Zm2.83,5.71.57-1.1a.37.37,0,0,1,.24-.2.44.44,0,0,1,.3,0,.4.4,0,0,1,.2.24.42.42,0,0,1,0,.31l-.57,1.1a.44.44,0,0,1-.24.2.39.39,0,0,1-.3,0,.38.38,0,0,1-.2-.23A.42.42,0,0,1,539.57,697Z" transform="translate(-511.51 -674.69)"/></svg>