<svg id="레이어_1" data-name="레이어 1" xmlns="http://www.w3.org/2000/svg" viewBox="0 0 33 31.69"><defs><style>.cls-1{fill:#fff;}</style></defs><title>무제-2</title><path class="cls-1" d="M532.29,691h-12l3.9-4a.41.41,0,0,0,.19,0h0a.61.61,0,0,0,.31-.32q3.85-9.24,7.7-18.49c.37-.87.73-1.74,1.1-2.62a1.09,1.09,0,0,0,0-.17,3.31,3.31,0,0,0-6.17-2.38q-3.85,9.26-7.7,18.49c-.37.87-.73,1.75-1.1,2.62a.62.62,0,0,0,.12.64l0,1.49v.71c0,1.36,0,2.72-.07,4.08H501.36c-.85,0-.85,1.63,0,1.63h30.93C533.14,692.59,533.14,691,532.29,691Zm.24-26.53-3.73-1.56A2.14,2.14,0,0,1,532.53,664.43ZM527.4,666c.29-.69.58-1.38.86-2.07l3.91,1.62-7.47,17.94-.87,2.07-3.9-1.63Zm-7.51,19.47,2.88,1.2-1.66,1.7-1.26-.53C519.86,687.07,519.88,686.28,519.89,685.49Z" transform="translate(-500.72 -660.9)"/></svg>