<svg id="cat" data-name="cat" xmlns="http://www.w3.org/2000/svg" viewBox="0 0 69.64 79.72"><defs><style>.cls-1{fill:#fff;stroke:#fff;stroke-miterlimit:10;stroke-width:2px;}</style></defs><title>noun_Cat_1486577</title><path class="cls-1" d="M82.49,64.17a20.24,20.24,0,0,1-.83,2.25,17.2,17.2,0,0,1-1,2.19l-1.11,2.12-1.3,2A33.35,33.35,0,0,1,63.72,84.52c-.36.16-.71.33-1.08.47l-1.12.36c-.76.22-1.49.52-2.25.68l-2.3.49a23.24,23.24,0,0,1-2.33.31A35,35,0,0,1,50,87c-.78,0-1.56-.13-2.33-.19a16.64,16.64,0,0,1-2.32-.34,35.17,35.17,0,0,1-4.52-1.14A36.16,36.16,0,0,1,36.5,83.5a31.25,31.25,0,0,1-7.6-5.35,32.6,32.6,0,0,1-5.77-7.25,35,35,0,0,1-3.48-8.56,35.6,35.6,0,0,1-.87-9.2,34.93,34.93,0,0,1,1.8-9.06,35,35,0,0,1,4.29-8.17,35.73,35.73,0,0,1,6.43-6.63,35.32,35.32,0,0,1,8.07-4.51,35.68,35.68,0,0,1,9-2.05h0a1.39,1.39,0,0,0,1.12-.8A52.9,52.9,0,0,1,52,17.12a22.77,22.77,0,0,1,1.43-2.22,11.49,11.49,0,0,1,1-1.23,6,6,0,0,1,.64.51,8.72,8.72,0,0,1,1.19,1.36,14.37,14.37,0,0,1,1,1.6c.3.57.57,1.16.82,1.76v0a1.26,1.26,0,0,0,1.2.76,24.75,24.75,0,0,1,3.2.11,24.38,24.38,0,0,1,3.19.52,18.4,18.4,0,0,1,3,1,13.82,13.82,0,0,1,2.69,1.57l0,0a1.1,1.1,0,0,0,1.32,0,13.25,13.25,0,0,1,1.49-1,14.53,14.53,0,0,1,1.64-.79,10.21,10.21,0,0,1,2.72-.71,13.26,13.26,0,0,1,.31,1.8,20,20,0,0,1,.11,2.68,25.76,25.76,0,0,1-.71,5.37,38.77,38.77,0,0,1-1.67,5.23,17.62,17.62,0,0,1-2.57,4.76,13.29,13.29,0,0,1-9.29,5A14.52,14.52,0,0,1,54.53,41.9a14.5,14.5,0,0,0,10.32,4A14.11,14.11,0,0,0,75,41,18.87,18.87,0,0,0,78,36a35.1,35.1,0,0,0,1.94-5.37,27.38,27.38,0,0,0,1-5.7A18,18,0,0,0,80.29,19a.9.9,0,0,0-.85-.65h-.07a11.39,11.39,0,0,0-4.2.78,15.77,15.77,0,0,0-1.91.88c-.39.21-.76.43-1.13.67a18,18,0,0,0-5.84-2.66,27.83,27.83,0,0,0-3.49-.65,26.4,26.4,0,0,0-2.68-.18c-.18-.42-.36-.84-.57-1.25a15.8,15.8,0,0,0-1.16-1.92,10.42,10.42,0,0,0-1.51-1.77,8.17,8.17,0,0,0-1-.77c-.18-.12-.36-.24-.55-.35a4.71,4.71,0,0,0-.74-.32,1.23,1.23,0,0,0-1.08.17h0a10,10,0,0,0-2.23,2.3c-.59.79-1.12,1.6-1.61,2.41-.85,1.41-1.6,2.84-2.32,4.31a37.07,37.07,0,0,0-9,2A38.19,38.19,0,0,0,29.52,27a38.51,38.51,0,0,0-7.06,7.2,36.52,36.52,0,0,0-4.69,8.94A37.58,37.58,0,0,0,15.85,53a38.56,38.56,0,0,0,1,10,35.94,35.94,0,0,0,3.89,9.29,35.55,35.55,0,0,0,6.37,7.77,33.18,33.18,0,0,0,8.28,5.65A38.36,38.36,0,0,0,40,87.63a38.9,38.9,0,0,0,4.89,1.12,18.67,18.67,0,0,0,2.48.31c.84,0,1.67.13,2.5.14a37.53,37.53,0,0,0,5-.33,32.6,32.6,0,0,0,9.55-2.74A33.71,33.71,0,0,0,79.09,73.27l1.25-2.12,1-2.22a17.09,17.09,0,0,0,.89-2.28A21.61,21.61,0,0,0,83,64.33L83.58,62c.18-.79.23-1.61.34-2.41l.15-1.21c0-.4,0-.81.05-1.22l0-2.42A36.57,36.57,0,0,1,82.49,64.17Z" transform="translate(-15.18 -10.14)"/><path d="M69.2,37.56A3,3,0,0,0,72,36.89c-.5-.06-.93,0-1.36-.1a7.71,7.71,0,0,1-1.2-.2A12.88,12.88,0,0,1,67,35.72a2.64,2.64,0,0,0,.86,1.19A3.39,3.39,0,0,0,69.2,37.56Z" transform="translate(-15.18 -10.14)"/><path d="M58.83,33.84c-.5-.05-.94-.05-1.36-.1a7.83,7.83,0,0,1-1.21-.19,13.82,13.82,0,0,1-2.43-.87,2.47,2.47,0,0,0,.86,1.18,3.3,3.3,0,0,0,1.34.66A3.07,3.07,0,0,0,58.83,33.84Z" transform="translate(-15.18 -10.14)"/></svg>