<svg id="레이어_1" data-name="레이어 1" xmlns="http://www.w3.org/2000/svg" viewBox="0 0 576.56 72.4"><defs><style>.cls-1{fill:#fff;stroke:#ffbf0b;stroke-miterlimit:10;stroke-width:4px;}</style></defs><title>엘렌</title><path class="cls-1" d="M588.8,449.72H565.05V458H586v15.86h-20.9v9.5H588.8v16.82H544V432.91H588.8Z" transform="translate(-541.96 -430.24)"/><path class="cls-1" d="M617.87,432.91v51.3H638.2v16H596.78V432.91Z" transform="translate(-541.96 -430.24)"/><path class="cls-1" d="M665.94,432.91v51.3h20.33v16H644.85V432.91Z" transform="translate(-541.96 -430.24)"/><path class="cls-1" d="M737.76,449.72H714V458h20.9v15.86H714v9.5h23.75v16.82H692.92V432.91h44.84Z" transform="translate(-541.96 -430.24)"/><path class="cls-1" d="M810.25,432.91v67.26H789.16l-22.33-33.82v33.82H745.74V432.91h21.09l22.33,34.39V432.91Z" transform="translate(-541.96 -430.24)"/><path class="cls-1" d="M831.14,432.91h24.13L866,456.75l10.74-23.84H900.5l-24.13,46.83v20.43h-21.1V479.74Z" transform="translate(-541.96 -430.24)"/><path class="cls-1" d="M948.38,490H926l-3.32,10.17H900.49l24.61-67.26h24.32l24.51,67.26H951.7Zm-11.21-34.58-6.09,18.72h12.17Z" transform="translate(-541.96 -430.24)"/><path class="cls-1" d="M1043.18,432.91v67.26h-21.09l-22.32-33.82v33.82H978.68V432.91h21.09l22.32,34.39V432.91Z" transform="translate(-541.96 -430.24)"/><path class="cls-1" d="M1116.14,455.9h-22.23c-1.61-2.57-4.65-4.18-9-4.18-8.17,0-12.73,5.79-12.73,14.72,0,10.45,4.75,15.68,15.1,15.68a13.79,13.79,0,0,0,11.78-5.89h-16.81V461.31h34.29V482.4c-4.65,8.08-14.15,18.24-31.54,18.24-21.18,0-34.2-14.15-34.2-34.2s12.92-34.2,34-34.2C1102.65,432.24,1114.15,441.55,1116.14,455.9Z" transform="translate(-541.96 -430.24)"/></svg>