<svg id="레이어_1" data-name="레이어 1" xmlns="http://www.w3.org/2000/svg" viewBox="0 0 324.75 37.35"><defs><style>.cls-1{fill:#f5b91d;}</style></defs><title>well-worker</title><path class="cls-1" d="M101,135.8h11L114.3,153,118,135.8H129.8l3.85,17.35,2.4-17.35H146.3L139.6,164H127.1l-3.4-15.9L120.1,164H107.6Z" transform="translate(-100.95 -127)"/><path class="cls-1" d="M161.55,164.35c-8.45,0-14.4-5.45-14.4-14.45s5.95-14.45,14.4-14.45,14.4,5.35,14.4,14.2a16.26,16.26,0,0,1-.15,2.2H158c.15,2.85,1.5,3.65,3,3.65a2.69,2.69,0,0,0,2.6-1.65h11.75C174.15,159.85,168.65,164.35,161.55,164.35ZM158.1,147h6.6c0-1.95-1.5-2.85-3.15-2.85A3.18,3.18,0,0,0,158.1,147Z" transform="translate(-100.95 -127)"/><path class="cls-1" d="M179.45,127h11.1v37h-11.1Z" transform="translate(-100.95 -127)"/><path class="cls-1" d="M195.55,127h11.1v37h-11.1Z" transform="translate(-100.95 -127)"/><path class="cls-1" d="M210.15,142.35h23.3v9.15h-23.3Z" transform="translate(-100.95 -127)"/><path class="cls-1" d="M237.9,135.8h11L251.25,153l3.65-17.15h11.85l3.85,17.35L273,135.8h10.25l-6.7,28.2h-12.5l-3.4-15.9-3.6,15.9h-12.5Z" transform="translate(-100.95 -127)"/><path class="cls-1" d="M299,164.35c-8.5,0-14.9-5.45-14.9-14.45s6.4-14.45,14.9-14.45,14.9,5.45,14.9,14.45S307.5,164.35,299,164.35Zm0-9.6c1.95,0,3.65-1.5,3.65-4.85s-1.7-4.85-3.65-4.85-3.65,1.5-3.65,4.85S297,154.75,299,154.75Z" transform="translate(-100.95 -127)"/><path class="cls-1" d="M328.5,164H317.4V135.8h11.1V141c2.2-3.15,5.6-5.4,9.25-5.4v11.85H334.6c-4,0-6.1,1.15-6.1,5Z" transform="translate(-100.95 -127)"/><path class="cls-1" d="M340.75,127h11.1v19.35l7-10.55h12.9L361.25,150l10.8,14H358.8l-6.95-11.25V164h-11.1Z" transform="translate(-100.95 -127)"/><path class="cls-1" d="M387.45,164.35c-8.45,0-14.4-5.45-14.4-14.45s5.95-14.45,14.4-14.45,14.4,5.35,14.4,14.2a16.26,16.26,0,0,1-.15,2.2H383.9c.15,2.85,1.5,3.65,3,3.65a2.69,2.69,0,0,0,2.6-1.65h11.75C400.05,159.85,394.55,164.35,387.45,164.35ZM384,147h6.6c0-1.95-1.5-2.85-3.15-2.85A3.18,3.18,0,0,0,384,147Z" transform="translate(-100.95 -127)"/><path class="cls-1" d="M416.45,164h-11.1V135.8h11.1V141c2.2-3.15,5.6-5.4,9.25-5.4v11.85h-3.15c-4,0-6.1,1.15-6.1,5Z" transform="translate(-100.95 -127)"/></svg>